<svg xmlns="http://www.w3.org/2000/svg"  viewBox="0 0 50 50" width="50px" height="50px"><path d="M 9 4 C 6.243 4 4 6.243 4 9 L 4 41 C 4 43.757 6.243 46 9 46 L 41 46 C 43.757 46 46 43.757 46 41 L 46 9 C 46 6.243 43.757 4 41 4 L 9 4 z M 9 6 L 41 6 C 42.654 6 44 7.346 44 9 L 44 41 C 44 42.654 42.654 44 41 44 L 9 44 C 7.346 44 6 42.654 6 41 L 6 9 C 6 7.346 7.346 6 9 6 z M 24.5 9 A 6 6 0 0 0 24.5 21 A 6 6 0 0 0 24.5 9 z M 19.113281 21.191406 C 18.910406 21.186281 18.70725 21.241828 18.53125 21.361328 C 16.32025 22.850328 15 25.333 15 28 L 15 37 C 15 38.654 16.346 40 18 40 L 24 40 C 24.552 40 25 39.553 25 39 L 25 28.5 C 25 26.57 26.57 25 28.5 25 L 31.740234 25 C 32.112234 25 32.453953 24.793844 32.626953 24.464844 C 32.799953 24.134844 32.774453 23.737641 32.564453 23.431641 C 32.006453 22.623641 31.301656 21.928281 30.472656 21.363281 C 30.119656 21.124281 29.653547 21.135625 29.310547 21.390625 C 26.496547 23.497625 22.507453 23.497625 19.689453 21.390625 C 19.518953 21.263625 19.316156 21.196531 19.113281 21.191406 z M 28.5 27 C 27.673 27 27 27.673 27 28.5 L 27 39.5 C 27 40.327 27.673 41 28.5 41 L 34.5 41 C 35.327 41 36 40.327 36 39.5 L 36 28.5 C 36 27.673 35.327 27 34.5 27 L 28.5 27 z M 29 29 L 34 29 L 34 38 L 29 38 L 29 29 z"/></svg>