<?xml version="1.0" encoding="UTF-8"?>
<!DOCTYPE svg PUBLIC "-//W3C//DTD SVG 1.1//EN" "http://www.w3.org/Graphics/SVG/1.1/DTD/svg11.dtd">
<!-- Creator: CorelDRAW 2021 (64-Bit) -->
<svg xmlns="http://www.w3.org/2000/svg" xml:space="preserve" width="8mm" height="5.9999mm" version="1.1" style="shape-rendering:geometricPrecision; text-rendering:geometricPrecision; image-rendering:optimizeQuality; fill-rule:evenodd; clip-rule:evenodd"
viewBox="0 0 6.4 4.8"
 xmlns:xlink="http://www.w3.org/1999/xlink"
 xmlns:xodm="http://www.corel.com/coreldraw/odm/2003">
 <defs>
  <style type="text/css">
   <![CDATA[
    .fil5 {fill:#00148E}
    .fil6 {fill:#DA0010}
    .fil4 {fill:#FFE800}
    .fil1 {fill:#00247D;fill-rule:nonzero}
    .fil0 {fill:#CF142B;fill-rule:nonzero}
    .fil2 {fill:#FFCC00;fill-rule:nonzero}
    .fil3 {fill:white;fill-rule:nonzero}
   ]]>
  </style>
 </defs>
 <g id="Capa_x0020_1">
  <metadata id="CorelCorpID_0Corel-Layer"/>
  <g id="_2320928315024">
   <g id="ve.svg">
    <polygon class="fil0" points="-0,-0 6.4,-0 6.4,4.8 "/>
    <polygon class="fil1" points="-0,-0 6.4,-0 6.4,3.2 4.27,3.2 "/>
    <polygon class="fil2" points="-0,-0 6.4,-0 6.4,1.6 2.13,1.6 "/>
    <g id="ve-f">
     <g id="ve-e">
      <g>
       <g>
        <g>
         <polygon class="fil3" points="3.49,1.75 3.39,1.92 3.5,1.98 "/>
         <polygon class="fil3" points="3.49,1.75 3.51,1.94 3.39,1.96 "/>
        </g>
        <g>
         <polygon class="fil3" points="3.65,1.91 3.45,1.88 3.43,2 "/>
         <polygon class="fil3" points="3.65,1.91 3.47,2 3.42,1.89 "/>
        </g>
       </g>
       <g>
        <polygon class="fil3" points="3.27,1.85 3.42,1.99 3.5,1.91 "/>
        <polygon class="fil3" points="3.27,1.85 3.47,1.89 3.45,2 "/>
       </g>
       <g>
        <g>
         <polygon class="fil3" points="3.54,2.12 3.51,1.92 3.39,1.94 "/>
         <polygon class="fil3" points="3.54,2.12 3.4,1.98 3.49,1.89 "/>
        </g>
        <g>
         <polygon class="fil3" points="3.31,2.08 3.49,1.99 3.43,1.89 "/>
         <polygon class="fil3" points="3.31,2.08 3.4,1.9 3.51,1.96 "/>
        </g>
       </g>
      </g>
      <g>
       <g>
        <g>
         <polygon class="fil3" points="4.02,1.94 3.87,2.08 3.95,2.16 "/>
         <polygon class="fil3" points="4.02,1.94 3.98,2.14 3.86,2.11 "/>
        </g>
        <g>
         <polygon class="fil3" points="4.12,2.15 3.94,2.06 3.88,2.16 "/>
         <polygon class="fil3" points="4.12,2.15 3.92,2.17 3.9,2.06 "/>
        </g>
       </g>
       <g>
        <polygon class="fil3" points="3.79,1.96 3.87,2.15 3.98,2.1 "/>
        <polygon class="fil3" points="3.79,1.96 3.96,2.07 3.9,2.17 "/>
       </g>
       <g>
        <g>
         <polygon class="fil3" points="3.94,2.31 3.98,2.12 3.87,2.09 "/>
         <polygon class="fil3" points="3.94,2.31 3.86,2.13 3.97,2.08 "/>
        </g>
        <g>
         <polygon class="fil3" points="3.74,2.19 3.94,2.17 3.93,2.05 "/>
         <polygon class="fil3" points="3.74,2.19 3.89,2.06 3.97,2.15 "/>
        </g>
       </g>
      </g>
     </g>
     <g>
      <g>
       <g>
        <g>
         <polygon class="fil3" points="4.46,2.31 4.27,2.38 4.32,2.49 "/>
         <polygon class="fil3" points="4.46,2.31 4.35,2.48 4.25,2.41 "/>
        </g>
        <g>
         <polygon class="fil3" points="4.47,2.54 4.34,2.39 4.25,2.46 "/>
         <polygon class="fil3" points="4.47,2.54 4.28,2.49 4.31,2.38 "/>
        </g>
       </g>
       <g>
        <polygon class="fil3" points="4.23,2.25 4.25,2.45 4.36,2.44 "/>
        <polygon class="fil3" points="4.23,2.25 4.36,2.4 4.27,2.48 "/>
       </g>
       <g>
        <g>
         <polygon class="fil3" points="4.26,2.63 4.36,2.46 4.26,2.4 "/>
         <polygon class="fil3" points="4.26,2.63 4.24,2.43 4.36,2.42 "/>
        </g>
        <g>
         <polygon class="fil3" points="4.1,2.45 4.3,2.5 4.33,2.38 "/>
         <polygon class="fil3" points="4.1,2.45 4.29,2.38 4.34,2.48 "/>
        </g>
       </g>
      </g>
      <g>
       <g>
        <g>
         <polygon class="fil3" points="4.74,2.8 4.54,2.81 4.55,2.93 "/>
         <polygon class="fil3" points="4.74,2.8 4.58,2.92 4.51,2.83 "/>
        </g>
        <g>
         <polygon class="fil3" points="4.68,3.03 4.61,2.84 4.5,2.88 "/>
         <polygon class="fil3" points="4.68,3.03 4.51,2.91 4.58,2.81 "/>
        </g>
       </g>
       <g>
        <polygon class="fil3" points="4.55,2.67 4.49,2.86 4.61,2.89 "/>
        <polygon class="fil3" points="4.55,2.67 4.61,2.86 4.5,2.9 "/>
       </g>
       <g>
        <g>
         <polygon class="fil3" points="4.44,3.03 4.6,2.91 4.53,2.82 "/>
         <polygon class="fil3" points="4.44,3.03 4.5,2.84 4.61,2.87 "/>
        </g>
        <g>
         <polygon class="fil3" points="4.36,2.81 4.53,2.92 4.6,2.83 "/>
         <polygon class="fil3" points="4.36,2.81 4.56,2.81 4.57,2.93 "/>
        </g>
       </g>
      </g>
     </g>
    </g>
    <g>
     <g>
      <g>
       <polygon class="fil3" points="2.92,1.75 2.89,1.94 3.01,1.96 "/>
       <polygon class="fil3" points="2.92,1.75 3.01,1.92 2.9,1.98 "/>
      </g>
      <g>
       <polygon class="fil3" points="3.13,1.85 2.93,1.89 2.95,2 "/>
       <polygon class="fil3" points="3.13,1.85 2.99,1.99 2.9,1.91 "/>
      </g>
     </g>
     <g>
      <polygon class="fil3" points="2.75,1.91 2.93,2 2.99,1.89 "/>
      <polygon class="fil3" points="2.75,1.91 2.95,1.88 2.97,2 "/>
     </g>
     <g>
      <g>
       <polygon class="fil3" points="3.09,2.08 3,1.9 2.89,1.96 "/>
       <polygon class="fil3" points="3.09,2.08 2.91,1.99 2.97,1.89 "/>
      </g>
      <g>
       <polygon class="fil3" points="2.86,2.12 3,1.98 2.92,1.89 "/>
       <polygon class="fil3" points="2.86,2.12 2.89,1.92 3.01,1.94 "/>
      </g>
     </g>
    </g>
   </g>
   <g>
    <polygon class="fil4" points="6.4,4.8 -0,4.8 -0,-0 "/>
    <polygon class="fil5" points="-0,2.4 3.2,2.4 6.4,4.8 -0,4.8 "/>
    <polygon class="fil6" points="-0,3.6 4.8,3.6 6.4,4.8 -0,4.8 "/>
   </g>
  </g>
 </g>
</svg>
