<?xml version="1.0" encoding="UTF-8"?>
<!DOCTYPE svg PUBLIC "-//W3C//DTD SVG 1.1//EN" "http://www.w3.org/Graphics/SVG/1.1/DTD/svg11.dtd">
<!-- Creator: CorelDRAW 2021 (64-Bit) -->
<svg xmlns="http://www.w3.org/2000/svg" xml:space="preserve" width="50mm" height="50mm" version="1.1" style="shape-rendering:geometricPrecision; text-rendering:geometricPrecision; image-rendering:optimizeQuality; fill-rule:evenodd; clip-rule:evenodd"
viewBox="0 0 537.17 537.17"
 xmlns:xlink="http://www.w3.org/1999/xlink"
 xmlns:xodm="http://www.corel.com/coreldraw/odm/2003">
 <defs>
  <style type="text/css">
   <![CDATA[
    .fil0 {fill:#E6EAF3}
    .fil1 {fill:#052011;fill-rule:nonzero}
   ]]>
  </style>
 </defs>
 <g id="Capa_x0020_1">
  <metadata id="CorelCorpID_0Corel-Layer"/>
  <path class="fil0" d="M268.58 0c148.33,0 268.58,120.25 268.58,268.58 0,148.33 -120.25,268.58 -268.58,268.58 -148.33,0 -268.58,-120.25 -268.58,-268.58 0,-148.33 120.25,-268.58 268.58,-268.58z"/>
  <path class="fil1" d="M252.12 363.72l-44.77 0 -49.36 -145.77c-0.32,-1.53 -1.37,-2.32 -3.28,-2.32 -1.74,0 -3.01,0.79 -3.86,2.32l-48.31 145.77 -45.35 0c2.54,-8.98 8.09,-26.9 16.65,-53.64 8.51,-26.8 16.75,-52.11 24.84,-76 8.98,-26.53 14.43,-41.33 16.38,-44.34 3.75,-5.29 9.14,-9.3 16.28,-12.1 7.13,-2.8 14.85,-4.17 23.2,-4.17 8.4,0 16.12,1.37 23.15,4.17 7.08,2.8 12.47,6.82 16.23,12.1 2.27,3.12 7.82,17.76 16.7,44.03 5.44,16.12 13.64,41.49 24.47,76 6.61,20.98 12.26,38.95 17.02,53.96zm50.74 0l-41.86 0 0 -40.59 41.86 0 0 40.59zm126.11 -75.16l-40.33 0c-10.31,0 -17.71,3.49 -22.15,10.47 -3.01,4.76 -4.49,10.73 -4.49,17.92 0,2.59 0.05,4.17 0.11,4.65 0.05,0.53 0.26,1.06 0.53,1.59l0 40.54 -41.22 0c-0.16,-3.12 -0.21,-7.4 -0.21,-12.9 0,-5.5 0,-12.74 0,-21.62 0,-8.93 0.05,-18.45 0.21,-28.49 0,-15.17 3.7,-27.38 11.15,-36.73 8.67,-10.89 21.41,-16.33 38.21,-16.33l51.21 0c4.76,0 8.4,-1.59 10.99,-4.81 2.59,-3.22 3.86,-7.03 3.86,-11.36 0,-4.7 -1.22,-8.62 -3.7,-11.79 -2.8,-3.54 -6.5,-5.34 -11.15,-5.34l-100.58 0 0 -39.96 107.61 0c16.12,0 28.86,5.92 38.27,17.76 8.46,10.68 12.68,23.78 12.68,39.32 0,15.43 -4.23,28.49 -12.68,39.16 -9.41,11.94 -22.2,17.92 -38.32,17.92z"/>
 </g>
</svg>
